<svg width="20" height="20" viewBox="0 0 20 20" fill="none" xmlns="http://www.w3.org/2000/svg">
<g clip-path="url(#clip0_1_2020)">
<path d="M0 10.6301V9.38065C0.0121125 9.31752 0.0250922 9.25439 0.0346092 9.19126C0.106419 8.71603 0.14276 8.23291 0.255233 7.7682C1.00275 4.67833 2.79279 2.41266 5.60029 1.001C7.45955 0.0663173 9.43994 -0.20374 11.4835 0.148737C14.0427 0.587141 16.1295 1.86903 17.7024 3.95847C19.3462 6.1461 19.983 8.6301 19.6335 11.3543C19.3879 13.324 18.5485 15.1689 17.23 16.6371C15.7649 18.33 13.7709 19.4619 11.5813 19.8436C11.217 19.9111 10.8476 19.9488 10.4799 19.9997H9.24701C9.00649 19.969 8.76511 19.9436 8.52545 19.912C6.59913 19.6506 4.79462 18.8091 3.34564 17.4964C1.66121 16.0099 0.533987 13.9803 0.154004 11.7498C0.0882505 11.3771 0.0510454 11.0019 0 10.6301ZM9.85004 14.5468C11.5227 14.5468 13.1983 14.5468 14.8767 14.5468C15.7099 14.5468 16.2195 14.0286 16.2203 13.1851V6.82388C16.2203 5.98039 15.7099 5.46395 14.875 5.46395H4.86057C4.01442 5.46395 3.50743 5.97864 3.50743 6.83528C3.50743 8.93962 3.52214 11.0501 3.49965 13.1571C3.49099 13.9243 4.02567 14.5679 4.88393 14.5547C6.53728 14.5284 8.1941 14.5468 9.85004 14.5468Z" fill="white"/>
<path d="M9.85 14.5467C8.19405 14.5467 6.53723 14.5283 4.88128 14.5546C4.02562 14.5678 3.49094 13.9242 3.497 13.157C3.51949 11.0526 3.50392 8.94217 3.50478 6.8352C3.50478 5.97856 4.01178 5.46387 4.85792 5.46387H14.8723C15.7072 5.46387 16.2168 5.98031 16.2177 6.8238V13.185C16.2177 14.0285 15.7072 14.5458 14.8741 14.5467C13.2002 14.5479 11.5256 14.5479 9.85 14.5467ZM4.52829 7.0202V13.1377C4.52829 13.4735 4.57414 13.5191 4.9081 13.5191H14.8075C15.1535 13.5191 15.1985 13.477 15.1985 13.1298V7.0202C15.0757 7.11753 14.9917 7.18417 14.9087 7.25168L10.2488 11C9.97112 11.2236 9.75828 11.2236 9.48575 11.0053L6.25951 8.40907L4.52829 7.0202ZM14.1966 6.50639H5.57947C5.58467 6.56339 5.61928 6.57917 5.64783 6.60284C7.01135 7.69768 8.37313 8.79428 9.73319 9.89263C9.84653 9.98469 9.90623 9.95926 10.0092 9.87947C11.0676 9.02371 12.1277 8.16999 13.1896 7.31832L14.1966 6.50639Z" fill="white"/>
<path d="M4.52833 7.02051L6.25869 8.46023L9.48492 11.1468C9.75745 11.373 9.97029 11.3721 10.248 11.1406C11.8019 9.8488 13.3551 8.55638 14.9079 7.26338L15.1977 7.02402V13.337C15.1977 13.6965 15.1544 13.7395 14.8066 13.7395C11.5068 13.7395 8.20706 13.7395 4.90728 13.7395C4.57332 13.7395 4.52747 13.693 4.52747 13.3449V7.02051H4.52833Z" fill="#2F383B"/>
<path d="M14.1966 6.50488L13.1896 7.31681C12.1289 8.17024 11.0687 9.02395 10.0092 9.87796C9.91055 9.95775 9.84652 9.98318 9.73318 9.89112C8.37485 8.79043 7.01307 7.69384 5.64782 6.60133C5.61927 6.57766 5.58466 6.56188 5.57947 6.50488H14.1966Z" fill="#2F383B"/>
</g>
<defs>
<clipPath id="clip0_1_2020">
<rect width="19.726" height="20" fill="white"/>
</clipPath>
</defs>
</svg>
