<svg width="20" height="20" viewBox="0 0 20 20" fill="none" xmlns="http://www.w3.org/2000/svg">
<g clip-path="url(#clip0_1_2027)">
<path d="M0 10.6269V9.37904C0.0147687 9.24927 0.0319844 9.12947 0.046753 8.9947C0.268039 6.82334 1.18267 4.78466 2.65152 3.18864C4.12038 1.59262 6.06311 0.526609 8.18431 0.152692C8.53629 0.0927968 8.89319 0.0528423 9.24764 0.00292969H10.4784C10.5276 0.00292969 10.5768 0.0303524 10.6261 0.0353437C12.1429 0.137027 13.6126 0.610631 14.909 1.41544C16.1355 2.14439 17.1897 3.13677 17.9976 4.32282C18.8056 5.50888 19.3476 6.85985 19.5857 8.28092C19.6522 8.64279 19.6867 9.01218 19.7359 9.37904V10.6269C19.7088 10.8764 19.6817 11.101 19.6497 11.3406C19.3654 13.4398 18.4323 15.3937 16.9844 16.9218C15.5366 18.4499 13.6484 19.4735 11.5909 19.8457C11.2266 19.9131 10.8525 19.9505 10.4907 20.0004H9.25996C9.01381 19.9705 8.76768 19.9455 8.53631 19.9106C6.46958 19.6189 4.5469 18.6716 3.04361 17.2044C1.54031 15.7372 0.533515 13.8252 0.167392 11.7424C0.0861638 11.373 0.0492289 10.9987 0 10.6269ZM9.863 16.504C9.93684 16.4217 10.0008 16.3593 10.055 16.2894C10.7934 15.391 11.5319 14.5075 12.2358 13.5866C13.0346 12.5668 13.7152 11.4573 14.2641 10.2799C14.6161 9.49879 14.8499 8.69774 14.7121 7.82426C14.4044 5.88266 13.3706 4.49258 11.5516 3.81377C9.73257 3.13495 8.05879 3.48686 6.59915 4.77211C5.32166 5.89764 4.38385 8.09875 5.4595 10.2899C5.93567 11.2545 6.48541 12.1799 7.10373 13.0576C7.95699 14.2596 8.87828 15.4103 9.863 16.504Z" fill="white"/>
<path d="M9.84584 16.4361C8.86052 15.3429 7.93919 14.1921 7.08657 12.9896C6.46825 12.1119 5.91848 11.1865 5.44231 10.222C4.35928 8.0308 5.30447 5.82969 6.58196 4.70416C8.0416 3.41891 9.72523 3.07199 11.5344 3.74581C13.3436 4.41963 14.3872 5.81471 14.6949 7.75631C14.8327 8.62978 14.5989 9.43334 14.2469 10.212C13.698 11.3894 13.0175 12.4989 12.2187 13.5187C11.5172 14.4396 10.7689 15.323 10.0378 16.2215C9.98615 16.2914 9.92215 16.3563 9.84584 16.4361ZM8.12283 8.6098C8.11943 8.98117 8.22479 9.34519 8.42555 9.65582C8.62632 9.96645 8.91348 10.2097 9.25067 10.3548C9.58786 10.4999 9.95993 10.5403 10.3198 10.4709C10.6796 10.4014 11.011 10.2254 11.2721 9.96485C11.5332 9.70434 11.7122 9.37116 11.7864 9.00748C11.8606 8.64379 11.8267 8.26594 11.689 7.92179C11.5513 7.57764 11.316 7.28265 11.0129 7.07415C10.7098 6.86566 10.3524 6.75305 9.98613 6.75056C9.49625 6.7479 9.02527 6.94193 8.67611 7.29033C8.32696 7.63873 8.12803 8.11313 8.12283 8.6098Z" fill="#2F383B"/>
<path d="M8.01198 8.50989C8.01198 7.28454 8.91531 6.29874 10.0156 6.30373C11.1158 6.30872 12.002 7.31947 11.9847 8.56479C11.9675 9.81011 11.0716 10.7684 9.97129 10.7585C8.87102 10.7485 8.00706 9.73275 8.01198 8.50989Z" fill="white"/>
</g>
<defs>
<clipPath id="clip0_1_2027">
<rect width="19.726" height="20" fill="white"/>
</clipPath>
</defs>
</svg>
