<svg width="20" height="20" viewBox="0 0 20 20" fill="none" xmlns="http://www.w3.org/2000/svg">
<g clip-path="url(#clip0_1_2012)">
<path d="M9.85388 0.00496474C4.35856 0.0228953 -0.0411045 4.50976 0.00152793 10.1031C0.0430946 15.651 4.51737 20.0809 10.0031 20.0039C15.4163 19.928 19.7382 15.4685 19.7265 9.96172C19.7148 4.45492 15.2693 -0.0171848 9.85388 0.00496474Z" fill="white"/>
<path d="M9.85388 0.00493034C15.2693 -0.0119455 19.7148 4.46754 19.7265 9.96169C19.7382 15.4558 15.4163 19.9279 10.0031 20.0039C4.51737 20.0809 0.0430946 15.651 0.00152793 10.103C-0.0411045 4.50446 4.35856 0.0175872 9.85388 0.00493034ZM12.9948 16.0117C13.072 15.9918 13.1464 15.9627 13.2165 15.9252C14.111 15.3623 14.9172 14.6726 15.6093 13.8779C15.8608 13.5847 15.848 13.4149 15.5421 13.1829C14.7378 12.5614 13.8659 12.0307 12.9426 11.6007C12.6388 11.4615 12.5408 11.49 12.3116 11.7421C12.0612 12.0174 11.8182 12.299 11.5741 12.5859C11.5467 12.6294 11.5035 12.6609 11.4533 12.6739C11.4031 12.6868 11.3499 12.6803 11.3044 12.6555C10.8152 12.4256 10.2962 12.2473 9.84322 11.9604C8.59552 11.1808 7.67719 9.97847 7.2597 8.57787C7.23473 8.52179 7.22978 8.45898 7.24566 8.39975C7.26154 8.34053 7.29731 8.28839 7.34709 8.25195C7.61141 8.02096 7.87999 7.78787 8.13152 7.54844C8.40544 7.29425 8.42996 7.20248 8.27542 6.85758C7.85716 5.94691 7.3446 5.08161 6.74597 4.27558C6.50403 3.94439 6.33457 3.9254 6.03082 4.19436C5.24776 4.89779 4.57336 5.71124 4.02922 6.60866C3.96276 6.7286 3.93946 6.86732 3.96314 7.00208C4.03637 7.41723 4.13641 7.82731 4.26264 8.2298C4.75824 9.69167 5.60236 10.9415 6.60742 12.0817C7.90558 13.5499 9.39772 14.7618 11.2053 15.5349C11.774 15.7816 12.3775 15.9406 12.9948 16.0064V16.0117ZM10.2909 4.82088C13.1323 5.1373 14.6745 6.71309 14.9804 9.56722H15.7723C15.8054 6.33233 13.0151 3.91063 10.2951 4.03404L10.2909 4.82088ZM13.6514 9.57248C13.6887 7.43558 11.7222 6.01907 10.2941 6.18993V6.99997C10.9656 7.01093 11.6054 7.28431 12.074 7.76045C12.5502 8.24694 12.8206 8.89519 12.8296 9.57248H13.6514Z" fill="white"/>
<path d="M12.9943 16.0067C12.3779 15.9371 11.7758 15.7745 11.2091 15.5246C9.3972 14.7515 7.90506 13.5396 6.61117 12.0714C5.60184 10.9312 4.75772 9.68138 4.26638 8.2195C4.14016 7.81702 4.04013 7.40693 3.9669 6.99178C3.94322 6.85702 3.96652 6.7183 4.03298 6.59837C4.57711 5.70095 5.25151 4.8875 6.03457 4.18406C6.33833 3.91511 6.50779 3.93409 6.74973 4.26528C7.34836 5.07132 7.86091 5.93661 8.27916 6.84729C8.43371 7.19219 8.4092 7.28395 8.13528 7.53815C7.87842 7.77757 7.61517 8.01066 7.35085 8.24165C7.30107 8.2781 7.2653 8.33022 7.24942 8.38944C7.23354 8.44867 7.23848 8.5115 7.26344 8.56757C7.68093 9.96817 8.59928 11.1705 9.84698 11.9501C10.3 12.237 10.819 12.4153 11.3082 12.6452C11.3536 12.67 11.4069 12.6765 11.4571 12.6636C11.5072 12.6506 11.5505 12.6191 11.5779 12.5756C11.8219 12.2929 12.0649 12.0113 12.3154 11.7318C12.5445 11.4797 12.6426 11.4512 12.9464 11.5905C13.8697 12.0204 14.7416 12.5511 15.5459 13.1726C15.8518 13.4046 15.8656 13.5744 15.613 13.8676C14.921 14.6623 14.1148 15.352 13.2203 15.9149C13.149 15.9545 13.0732 15.9854 12.9943 16.0067Z" fill="#2F383B"/>
<path d="M10.2904 4.81576V4.02893C13.0104 3.90552 15.8006 6.3272 15.7676 9.56209H14.9757C14.6741 6.70797 13.1319 5.13113 10.2904 4.81576Z" fill="#2F383B"/>
<path d="M13.6509 9.56791H12.8291C12.8201 8.89061 12.5497 8.24235 12.0735 7.75586C11.6049 7.27973 10.9651 7.00635 10.2936 6.99539V6.18535C11.7218 6.01764 13.6882 7.431 13.6509 9.56791Z" fill="#2F383B"/>
</g>
<defs>
<clipPath id="clip0_1_2012">
<rect width="19.726" height="20" fill="white"/>
</clipPath>
</defs>
</svg>
