<svg width="83" height="89" viewBox="0 0 83 89" fill="none" xmlns="http://www.w3.org/2000/svg">
<path d="M12.6917 88.7027C12.1805 88.4922 11.6808 88.2536 11.1946 87.9878C9.47491 86.9259 8.72186 85.3042 8.72186 83.2798C8.72186 81.4036 8.74433 79.5273 8.70162 77.6534C8.68719 77.2054 8.54662 76.7714 8.297 76.4041C6.23343 73.5909 5.14994 70.4653 5.23761 66.9187C5.28931 64.5821 5.29605 62.2431 5.23761 59.9065C5.15668 56.8017 5.63549 53.8751 7.65861 51.1521C6.88757 51.1521 6.29637 51.1521 5.70518 51.1521C4.94763 51.1521 4.19008 51.1683 3.43478 51.1244C1.76909 51.0272 0.287726 49.7108 0.0876626 48.022C-0.0292209 46.9921 -0.0292209 45.9517 0.0876626 44.9219C0.258503 43.3949 1.61624 41.9397 3.07962 41.8171C4.55955 41.6848 6.04832 41.6972 7.52597 41.8541C9.19617 42.0439 10.201 42.8212 12.0016 44.7854C12.1387 44.5147 12.2691 44.2671 12.3882 44.015C14.209 40.1236 15.9848 36.2138 17.8574 32.3456C19.314 29.3172 21.8249 27.9985 25.0349 27.9893C29.9421 27.9777 34.8515 27.9893 39.7587 27.9893H40.8467C38.7494 21.0811 39.5114 14.6727 43.5262 8.81492C46.4125 4.60202 50.3643 1.87439 55.2153 0.618158C64.8813 -1.88737 74.9362 3.41981 78.8947 12.9862C83.0106 22.9343 79.1577 34.9437 68.7162 40.1213C69.485 41.7015 70.2515 43.2816 71.0698 44.9658L71.5328 44.3828C72.713 42.9068 74.2146 42.0415 76.0803 41.9235C77.0852 41.8611 78.1035 41.8541 79.1038 41.8588C79.4967 41.861 79.8872 41.921 80.2637 42.0369C82.3812 42.7009 83.3523 44.9612 82.8848 48.0798C82.5948 50 81.046 51.2863 79.0049 51.2909C77.746 51.2909 76.4872 51.2909 75.1407 51.2909C75.1926 51.4363 75.2558 51.5771 75.3295 51.712C76.703 53.7201 77.51 55.948 77.546 58.4027C77.5909 61.8058 77.591 65.2113 77.5033 68.6145C77.4268 71.5365 76.2826 74.0767 74.5608 76.374C74.2887 76.7544 74.1322 77.2093 74.1112 77.6812C74.0617 79.532 74.0977 81.3828 74.0887 83.2197C74.0887 85.9427 72.8164 87.7033 70.2808 88.5593C70.2078 88.5969 70.1411 88.6461 70.0829 88.705H62.6649C62.6075 88.6455 62.5416 88.5955 62.4693 88.557C59.8887 87.6778 58.6681 85.9496 58.6591 83.1457C58.6591 82.4377 58.6591 81.7298 58.6591 80.9918H24.1223C24.1223 81.9172 24.1537 82.8056 24.1223 83.6893C24.0436 85.5401 23.2433 87.0023 21.6968 87.974C21.1832 88.255 20.6515 88.4993 20.1053 88.705L12.6917 88.7027ZM41.611 51.7351C31.5988 51.7351 21.5874 51.729 11.5767 51.7166C11.2462 51.6958 10.916 51.7615 10.6169 51.9076C10.3178 52.0536 10.0595 52.2752 9.86605 52.5518C8.50617 54.3012 7.77768 56.4818 7.80471 58.7219C7.80471 61.5213 7.77549 64.3206 7.8182 67.12C7.83822 68.0693 7.94661 69.0145 8.1419 69.9425C8.91967 73.7436 12.2533 78.322 17.8551 78.0212C20.3728 77.8847 22.9039 77.9981 25.426 77.9981C38.7771 77.9981 52.1267 77.9981 65.4747 77.9981C67.354 77.9981 69.0714 77.5747 70.6269 76.4666C73.9763 74.0698 75.0868 70.5301 75.2509 66.5833C75.3588 63.9921 75.2778 61.3917 75.2688 58.7937C75.3058 56.4933 74.5446 54.2548 73.1221 52.4801C72.9448 52.2289 72.7096 52.027 72.4377 51.8925C72.1658 51.7581 71.8656 51.6952 71.5643 51.7097C61.5821 51.739 51.5977 51.7475 41.611 51.7351ZM42.5821 20.9331C42.5618 30.8997 50.416 39.0085 60.1427 39.0664C69.8087 39.1219 77.8337 30.9043 77.8292 20.9377C77.8247 10.9711 69.8559 2.83912 60.1202 2.79285C50.4722 2.74658 42.6068 10.8809 42.5866 20.9331H42.5821ZM66.1266 40.9357C62.9016 42.0025 59.4633 42.1922 56.1459 41.4863C50.1305 40.2216 45.5598 36.8577 42.4337 31.3948C42.3451 31.2486 42.2269 31.1238 42.0873 31.0288C41.9477 30.9338 41.7898 30.8708 41.6244 30.8442C35.8204 30.8187 30.014 30.7909 24.2099 30.858C22.4296 30.8789 21.0966 31.8806 20.2604 33.5163C20.0356 33.9489 19.8625 34.407 19.6557 34.8465C17.4437 39.5568 15.2288 44.2702 13.0109 48.9867H69.9346L66.1266 40.9357ZM21.5079 80.7142C18.0102 80.6401 14.5394 81.1236 11.3339 79.0068C11.3339 80.5962 11.3204 81.975 11.3339 83.3516C11.3519 84.8322 12.2915 85.8756 13.7369 85.9172C15.5353 85.9704 17.3336 85.9658 19.1319 85.9172C20.4986 85.8848 21.4428 84.9016 21.5079 83.5043C21.5417 82.6182 21.5079 81.7298 21.5079 80.7142ZM71.6003 79.1572C68.4038 81.2833 64.897 80.7442 61.4442 80.8506C61.4442 81.7992 61.4128 82.6297 61.4442 83.458C61.5094 84.9155 62.4288 85.8825 63.845 85.9196C65.6433 85.9658 67.4282 85.9612 69.2175 85.9196C70.4404 85.8918 71.5081 85.0057 71.5711 83.8767C71.6632 82.3706 71.6003 80.853 71.6003 79.1572ZM6.66279 48.3597C7.6159 48.3597 8.57125 48.3759 9.52437 48.3597C10.2572 48.3435 10.5696 47.7397 10.219 47.0757C9.17144 45.0931 7.54396 44.3389 5.36574 44.3342C2.46819 44.3342 2.7222 44.7854 2.73119 47.196C2.73119 47.9849 3.14481 48.3528 3.88661 48.3528C4.8105 48.3644 5.73665 48.3574 6.66279 48.3597ZM76.1478 48.3597C77.0717 48.3597 77.9956 48.3597 78.9194 48.3597C79.886 48.3597 80.203 48.0104 80.2187 46.9994C80.2187 46.5112 80.2187 46.0208 80.2187 45.5326C80.2187 44.79 79.8141 44.4175 79.133 44.3759C78.5755 44.3388 78.009 44.3967 77.4538 44.3597C75.3183 44.2116 73.81 45.1879 72.7759 47.0595C72.3713 47.7929 72.641 48.3435 73.4638 48.3597C74.3584 48.3736 75.2531 48.3597 76.1478 48.3597Z" fill="#50AC97"/>
<path d="M63.247 66.0164C61.4487 66.0164 59.6504 66.0858 57.8745 65.991C56.582 65.9239 55.9638 65.0656 55.9795 63.7214C56.0133 61.0516 57.6138 59.0389 60.2123 58.4374C62.503 57.9076 64.8048 57.424 67.0932 56.8827C69.5659 56.2974 71.526 57.9723 71.2698 60.3529C71.1754 61.2367 71.2698 62.1413 71.2518 63.0343C71.2293 64.7787 70.3819 65.8661 68.7049 65.9771C66.8931 66.0951 65.0678 66.0025 63.2493 66.0025L63.247 66.0164ZM58.8366 63.4392H60.5832C62.9885 63.4392 65.3938 63.4253 67.799 63.3998C68.1564 63.3998 68.6465 63.5132 68.6442 62.8654C68.6442 61.9169 68.6734 60.9637 68.6038 60.0198C68.5903 59.8255 68.1542 59.4738 67.9789 59.5108C65.4657 60.0383 62.957 60.5912 60.4619 61.202C59.4953 61.438 58.9198 62.3079 58.8366 63.4392Z" fill="#50AC97"/>
<path d="M20.1547 66.4028C18.1181 66.2755 16.068 66.2616 14.0516 65.984C12.332 65.7527 11.7048 64.7856 11.6958 62.9765C11.6958 61.9955 11.6801 61.0146 11.6958 60.036C11.7363 57.9029 13.3391 56.4408 15.3757 56.8364C18.0102 57.35 20.638 57.9284 23.2298 58.6294C25.498 59.2448 27.0513 61.6508 26.9614 64.0962C26.9209 65.3039 26.287 66.0881 25.0259 66.1622C23.4074 66.2547 21.7799 66.183 20.157 66.183L20.1547 66.4028ZM24.3201 63.3212C24.0144 61.9886 23.3984 61.2575 22.297 61.0077C19.9322 60.4524 17.5516 59.962 15.1868 59.4021C14.4563 59.2309 14.2877 59.5363 14.2877 60.1864C14.3248 60.9339 14.3248 61.6829 14.2877 62.4305C14.227 63.1847 14.4787 63.4392 15.2205 63.4299C17.9607 63.3952 20.7009 63.4299 23.4434 63.4114C23.7131 63.4045 23.9829 63.3559 24.3201 63.3212Z" fill="#50AC97"/>
<path d="M41.5592 64.8412C44.3616 64.8412 47.1648 64.8412 49.9687 64.8412C50.2758 64.8367 50.5825 64.8662 50.8835 64.9291C51.1635 64.9846 51.4149 65.1412 51.5926 65.3707C51.7702 65.6002 51.8624 65.8875 51.8524 66.1807C51.8867 66.4888 51.8113 66.7992 51.6402 67.0545C51.469 67.3097 51.2138 67.4925 50.9218 67.5688C50.5684 67.659 50.2043 67.6972 49.8405 67.6822C44.2642 67.6822 38.6864 67.6822 33.1071 67.6822C31.7201 67.6822 31.084 67.2496 31.084 66.2941C31.084 65.3386 31.7808 64.8389 33.1521 64.8389L41.5592 64.8412Z" fill="#50AC97"/>
<path d="M41.4333 73.3202C38.4908 73.3202 35.5483 73.3202 32.6035 73.3202C31.3694 73.3202 30.6388 72.1796 31.3199 71.2635C31.499 71.0581 31.7157 70.8911 31.9575 70.772C32.1994 70.6529 32.4617 70.5841 32.7294 70.5694C35.4763 70.5023 38.2233 70.537 40.9702 70.537C44.0813 70.537 47.1924 70.507 50.3013 70.5694C50.5637 70.5918 50.8189 70.6694 51.0509 70.7976C51.2829 70.9257 51.4869 71.1016 51.65 71.3144C51.8591 71.6336 51.7894 72.4017 51.5399 72.7164C51.2611 73.068 50.6407 73.2924 50.1686 73.3017C47.2643 73.3456 44.3488 73.3202 41.4333 73.3202Z" fill="#50AC97"/>
<path d="M61.4352 11.6421C61.4352 14.268 61.4352 16.8059 61.4532 19.3415C61.478 19.4683 61.5317 19.5872 61.6099 19.6886C61.688 19.7899 61.7884 19.8708 61.9028 19.9245C65.0835 21.1044 66.8077 23.3948 66.8122 26.4833C66.8167 29.5718 64.9779 31.964 61.7971 33.0652L61.4374 33.1809C61.4374 33.6251 61.4374 34.1063 61.4374 34.5875C61.4149 35.7211 60.9609 36.3249 60.1201 36.3504C59.2794 36.3758 58.704 35.6841 58.686 34.5898C58.686 34.1271 58.686 33.6644 58.686 33.1716C57.2391 32.8683 55.9262 32.0917 54.9432 30.9576C53.9824 29.8141 53.4116 28.3784 53.318 26.8696C53.2326 25.8748 53.6552 25.2363 54.4285 25.1322C55.3276 25.0096 55.957 25.5023 56.0424 26.5619C56.1728 28.1675 56.8742 29.3381 58.2904 30.0322C58.4027 30.0751 58.5186 30.1076 58.6365 30.1294C58.6545 29.9466 58.6793 29.8101 58.6793 29.6667C58.6793 27.1588 58.6793 24.6487 58.6793 22.12C58.1555 21.9257 57.6475 21.7776 57.1731 21.5578C55.9919 21.0084 54.9944 20.1127 54.3055 18.9826C53.6166 17.8526 53.2668 16.5385 53.3 15.2049C53.3409 13.826 53.7947 12.4938 54.5995 11.3905C55.4043 10.2873 56.5206 9.46693 57.7958 9.04173C58.5354 8.78956 58.7714 8.44485 58.6815 7.6999C58.6421 7.32773 58.665 6.95137 58.7489 6.5871C58.895 5.90693 59.3469 5.57147 60.0235 5.57147C60.3207 5.554 60.6145 5.64416 60.8538 5.82629C61.0932 6.00842 61.2631 6.27104 61.334 6.56859C61.3721 6.64666 61.3899 6.73353 61.3857 6.82077C61.062 8.40553 62.0017 8.85665 63.2245 9.4304C65.4927 10.4923 66.6121 12.5236 66.7784 15.0869C66.8436 16.1141 66.3761 16.748 65.5398 16.8036C64.7373 16.8545 64.1147 16.2506 64.0607 15.2743C63.9776 13.7752 63.3414 12.6392 62.0916 11.8665C61.9947 11.8084 61.8932 11.7588 61.7881 11.7185C61.6719 11.6864 61.5541 11.6609 61.4352 11.6421ZM58.6343 11.6629C57.8577 11.9396 57.1881 12.4659 56.7243 13.164C56.2605 13.8622 56.027 14.6952 56.0582 15.5404C56.1054 17.1598 57.2406 18.8001 58.6343 19.2096V11.6629ZM61.5004 22.7493V30.2057C63.1234 29.6574 64.1169 28.0703 64.0495 26.2195C63.9865 24.5353 62.948 23.0963 61.5004 22.7493Z" fill="#50AC97"/>
</svg>
