<svg width="99" height="89" viewBox="0 0 99 89" fill="none" xmlns="http://www.w3.org/2000/svg">
<path d="M0 62.3653C0.130687 62.0751 0.261375 61.785 0.384375 61.4948C0.790245 60.5757 1.49455 59.7877 2.40563 59.2332C3.3167 58.6788 4.39237 58.3836 5.4927 58.3861C8.45623 58.3861 11.4236 58.4413 14.3833 58.3653C16.505 58.3135 18.3308 58.766 19.7415 60.3066L22.6473 59.3463C22.2361 57.8403 21.7441 56.4033 21.4596 54.9353C19.4263 44.393 22.5282 35.2462 30.8307 27.5675C34.9204 23.792 39.1063 20.1029 43.2729 16.3931C43.4808 16.2458 43.626 16.0388 43.6841 15.8067C43.7422 15.5746 43.7096 15.3316 43.5919 15.1185C42.3658 12.0512 41.1473 8.97691 40.0249 5.87502C39.739 5.11974 39.6898 4.30834 39.8827 3.52961C40.5016 1.49507 43.2959 0.735142 45.2063 1.98211C47.0052 3.15309 47.3549 3.13928 49.05 1.85085C50.6629 0.623803 52.7177 -0.0336357 54.8305 0.00132599C56.9434 0.0362877 58.9698 0.761265 60.5313 2.04084C61.8151 3.07711 62.5647 3.07711 63.9138 2.12029C64.5041 1.66424 65.2467 1.39797 66.0243 1.36356C66.8018 1.32916 67.5699 1.52857 68.2073 1.9303C69.518 2.74895 70.0138 4.13064 69.4488 5.62286C68.2611 8.7662 67.058 11.9061 65.8088 15.0287C65.675 15.2645 65.6368 15.5349 65.7006 15.7933C65.7644 16.0517 65.9263 16.2821 66.1585 16.4449C69.5564 19.4535 72.912 22.4967 76.2907 25.5192C76.8941 26.0649 77.3016 26.6591 77.0594 27.4535C76.9753 27.7429 76.8089 28.0076 76.5767 28.2218C76.3445 28.4361 76.0544 28.5924 75.7348 28.6757C75.4151 28.7589 75.0769 28.7661 74.7533 28.6966C74.4296 28.627 74.1315 28.4832 73.8883 28.2791C73.0465 27.6055 72.2778 26.8594 71.4821 26.1444C68.6108 23.5641 65.755 20.963 62.8529 18.4207C62.467 18.103 61.969 17.9171 61.4461 17.8957C56.9361 17.8542 52.4261 17.8542 47.9161 17.8957C47.4234 17.913 46.9536 18.0868 46.59 18.3862C42.212 22.2722 37.8417 26.1651 33.5213 30.1064C27.2214 35.8645 24.2963 42.8144 24.7691 50.8697C24.9001 53.2959 25.4485 55.6893 26.395 57.9646C28.3745 57.5087 30.2387 56.9767 32.1606 56.6589C37.3228 55.7954 42.2774 56.4897 47.009 58.4966C51.4255 60.3722 55.8496 62.2755 60.2315 64.1753C63.5294 65.6019 64.9901 67.861 64.7787 71.1528C64.7787 71.3428 64.7787 71.5328 64.7787 71.9887C65.9049 71.2392 66.9004 70.6692 67.7768 69.9784C72.7557 66.036 77.7141 62.074 82.6521 58.0924C82.9675 57.8141 83.199 57.4682 83.3247 57.0873C85.1291 51.8587 85.1143 46.2598 83.2824 41.039C83.2171 40.8455 83.1402 40.6555 83.0787 40.4586C82.7443 39.3947 83.2325 38.4863 84.3126 38.1616C84.558 38.085 84.8185 38.0552 85.0775 38.0738C85.3365 38.0925 85.5884 38.1593 85.8171 38.2701C86.0459 38.3808 86.2465 38.5331 86.4064 38.7171C86.5662 38.9012 86.6817 39.1132 86.7457 39.3395C87.3035 41.0262 87.7666 42.737 88.1332 44.4655C88.7124 47.5761 88.7228 50.7509 88.164 53.8645C88.9327 53.6814 89.6554 53.4569 90.3857 53.3498C91.9349 53.1119 93.5281 53.325 94.933 53.9583C96.3378 54.5915 97.4807 55.6116 98.1949 56.8697C98.9091 58.1279 99.1571 59.5582 98.9029 60.952C98.6487 62.3458 97.9054 63.6301 96.7817 64.6174C92.4434 68.4539 88.0781 72.2674 83.686 76.0578C80.734 78.6001 77.8551 81.2391 74.6763 83.5293C70.4021 86.6174 65.3667 88.2616 59.9009 88.7901C59.6506 88.8298 59.4039 88.8863 59.1629 88.9593H4.44722C3.37911 88.7011 2.40563 88.1944 1.62486 87.4904C0.844101 86.7863 0.283647 85.9097 0 84.949V62.3653ZM20.8754 85.4913H55.9842C63.5525 85.4913 70.0561 83.1355 75.4758 78.3687C79.7808 74.5691 84.1127 70.8247 88.4331 67.0527C90.2819 65.4361 92.15 63.8437 93.9604 62.196C95.8822 60.4448 95.2211 57.6572 92.7112 56.9249C91.2621 56.5 90.0205 56.8904 88.8982 57.7954C82.9211 62.5967 76.9134 67.3705 70.9286 72.1684C68.9184 73.7815 66.7389 75.1424 64.1829 75.968C60.5813 77.1148 56.972 77.5639 53.2628 76.2582C51.5023 75.6399 49.6612 75.2219 47.8585 74.6899C44.28 73.6537 40.6976 72.645 37.1229 71.6019C36.6811 71.5009 36.2928 71.2636 36.0258 70.9315C35.7589 70.5994 35.6302 70.1936 35.6623 69.785C35.693 69.391 35.873 69.0184 36.1724 68.7293C36.4718 68.4401 36.8724 68.2519 37.3074 68.196C37.7867 68.1805 38.2646 68.2498 38.7142 68.3998C44.5298 70.0475 50.3415 71.7193 56.161 73.3601C58.1482 73.9231 60.0047 73.1494 60.6928 71.5432C61.3808 69.9369 60.6159 68.2582 58.7286 67.443C54.0661 65.4223 49.4229 63.3705 44.7143 61.4396C40.6169 59.7574 36.2581 59.2565 31.9031 60.3066C28.4437 61.1391 25.1035 62.3791 21.6941 63.4154C21.0138 63.6192 20.8562 63.9301 20.86 64.5276C20.8831 70.6347 20.86 76.7418 20.86 82.835L20.8754 85.4913ZM17.0316 73.6537C17.0316 70.3514 17.0316 67.0515 17.0316 63.7539C17.0316 62.4137 16.4051 61.8644 14.9022 61.861C11.9374 61.861 8.97387 61.861 6.01162 61.861C4.51256 61.861 3.88602 62.4137 3.88602 63.7539C3.88602 70.3515 3.88602 76.9502 3.88602 83.55C3.88602 84.9317 4.50104 85.4878 6.06544 85.4913H14.76C16.4551 85.4913 17.0355 84.9732 17.0355 83.4637C17.0252 80.1822 17.0188 76.9064 17.0163 73.6364L17.0316 73.6537ZM44.0416 5.64013C45.1525 8.49677 46.1826 11.198 47.2781 13.875C47.3893 14.0099 47.5333 14.1201 47.6992 14.1974C47.8651 14.2746 48.0484 14.3167 48.2352 14.3206C52.5517 14.3482 56.8682 14.3206 61.1847 14.3517C61.4333 14.3818 61.6851 14.3241 61.8873 14.1907C62.0894 14.0574 62.2261 13.8587 62.2687 13.6367C63.1796 11.2014 64.1329 8.78002 65.0631 6.35171C65.1323 6.13111 65.1887 5.90743 65.2322 5.68159C62.4186 6.78348 60.0316 6.41042 57.8368 4.59696C56.9993 3.87253 55.885 3.46383 54.7226 3.45484C53.5602 3.44584 52.4382 3.83724 51.5869 4.54861C49.3537 6.3897 46.9513 6.77657 44.0263 5.62286L44.0416 5.64013Z" fill="#50AC97"/>
<path d="M54.8899 35.0539C54.9071 36.4294 54.2785 37.1094 53.2699 37.1559C52.2612 37.2025 51.5428 36.6281 51.4357 35.6531C51.3217 34.7217 50.7449 34.2094 49.7812 33.9734C49.3338 33.863 48.8609 33.8682 48.4167 33.9885C47.9725 34.1087 47.5751 34.3392 47.27 34.6534C47.1192 34.8046 47.0064 34.9832 46.9392 35.1771C46.872 35.3709 46.852 35.5755 46.8805 35.777C46.909 35.9784 46.9853 36.172 47.1044 36.3445C47.2235 36.5171 47.3824 36.6646 47.5705 36.7771C48.1282 37.0883 48.7633 37.2697 49.4185 37.305C52.0851 37.4447 54.3338 39.0655 54.8381 41.301C55.3251 43.4744 53.9607 45.592 51.4633 46.629C51.1918 46.7634 50.9869 46.9853 50.89 47.25C50.6205 48.0759 49.9746 48.5758 49.0869 48.5541C48.1992 48.5323 47.6707 48.0386 47.4047 47.2252C47.2726 46.9389 47.0262 46.7075 46.7139 46.5762C44.7416 45.71 43.5119 44.3842 43.3875 42.3598C43.3254 41.3786 43.9609 40.6831 44.9212 40.6024C45.1599 40.5764 45.402 40.5955 45.6321 40.6584C45.8621 40.7214 46.075 40.8268 46.2571 40.9679C46.4391 41.1091 46.5864 41.2829 46.6895 41.4782C46.7925 41.6735 46.8491 41.886 46.8555 42.102C46.8774 42.4937 47.0422 42.8681 47.3244 43.1672C47.6065 43.4663 47.9905 43.6736 48.4168 43.757C48.8587 43.8954 49.3368 43.9101 49.7882 43.7992C50.2396 43.6884 50.643 43.4571 50.9452 43.136C51.1278 42.9662 51.2621 42.7593 51.3366 42.5328C51.4111 42.3064 51.4235 42.0671 51.373 41.8354C51.3225 41.6037 51.2104 41.3863 51.0463 41.2019C50.8822 41.0175 50.671 40.8715 50.4306 40.7763C49.9106 40.5585 49.3461 40.4401 48.7726 40.4285C46.2338 40.3074 43.9368 38.637 43.4566 36.5132C42.9558 34.2901 44.2753 32.1663 46.7381 31.1448C47.0437 31.0089 47.2789 30.7719 47.3944 30.4835C47.6534 29.6855 48.2372 29.1949 49.1007 29.1825C49.5089 29.1594 49.9119 29.2738 50.2313 29.5034C50.5506 29.7331 50.7633 30.0615 50.8278 30.4245C50.9003 30.8809 51.1525 31.0082 51.5393 31.1665C53.5704 32.0111 54.7137 33.3959 54.8899 35.0539Z" fill="#50AC97"/>
<path d="M71.0207 29.4495C71.0253 29.2426 71.0766 29.0387 71.1715 28.8501C71.2665 28.6616 71.4031 28.4923 71.573 28.3527C71.7429 28.213 71.9426 28.1058 72.16 28.0377C72.3774 27.9695 72.6079 27.9417 72.8376 27.9561C73.2956 27.9729 73.7275 28.1527 74.0381 28.4558C74.3487 28.7589 74.5126 29.1604 74.4938 29.5722C74.4751 29.9839 74.2751 30.3721 73.9379 30.6513C73.6008 30.9305 73.154 31.0779 72.696 31.061C72.4669 31.0579 72.2409 31.0134 72.0314 30.93C71.822 30.8465 71.6334 30.726 71.477 30.5756C71.3206 30.4251 71.1996 30.2478 71.1212 30.0543C71.0428 29.8609 71.0086 29.6552 71.0207 29.4495Z" fill="#50AC97"/>
</svg>
