<svg width="97" height="95" viewBox="0 0 97 95" fill="none" xmlns="http://www.w3.org/2000/svg">
<path d="M58.3837 0C60.8153 0.84362 61.6986 2.52838 61.5762 4.8638C61.4831 6.55598 61.5576 8.2556 61.5576 9.97005C65.3779 9.26497 68.6396 11.8824 68.0064 15.7393C71.6501 15.8962 75.243 16.5962 78.648 17.8125C85.9002 20.4052 91.8648 24.4427 95.0679 31.256C98.5716 38.7026 97.2548 45.6569 91.5668 51.681C85.3522 58.2593 77.4189 62.1285 68.0915 63.4743C62.0311 64.3501 56.4683 63.2938 51.6184 59.6966C46.976 56.2529 44.5045 51.6043 43.6931 46.2234C42.573 38.7818 44.4433 31.8868 48.5589 25.4793C48.676 25.2962 48.7771 25.1082 48.9234 24.8633L47.4309 23.9553C45.9092 25.6492 44.383 27.3471 42.8524 29.0492C40.7906 31.35 38.7554 33.673 36.6563 35.9466C36.0227 36.622 35.6922 37.4979 35.7332 38.3934C35.7518 54.5928 35.7332 70.8022 35.7651 86.9918C35.7651 89.8987 34.7887 92.2762 32.1177 93.8669C31.269 94.3617 30.2554 94.6289 29.3163 95H26.7118C24.9692 94.5052 23.365 93.7828 22.1279 92.3826C20.8722 93.8298 19.2706 94.5077 17.552 95H14.9635C10.3131 93.8125 8.38431 90.7126 8.48274 86.163C8.65833 78.2464 8.53329 70.3297 8.53329 62.413V61.3542C8.37576 61.3607 8.21911 61.3798 8.06506 61.4111C4.20749 62.8014 -0.0890493 60.0331 0.0014041 55.7977C0.129103 49.8354 0.0226885 43.8682 0.0359905 37.901C0.0533797 34.6062 1.17844 31.399 3.25362 28.7284C5.32879 26.0578 8.25018 24.0575 11.6087 23.0078C12.3696 22.7604 13.1464 22.5872 14.0031 22.3522C12.1248 20.6452 10.8398 18.6883 10.4754 16.3727C10.2393 14.5963 10.1574 12.8051 10.2306 11.0165C10.3025 7.36746 11.9386 4.41849 15.0486 2.17708C16.6262 1.03906 18.4645 0.494792 20.3481 0L23.9316 0C24.1032 0.0774033 24.2811 0.141939 24.4637 0.192976C28.9119 1.15535 31.9953 3.60951 33.4346 7.64454C34.4801 10.5712 34.2646 13.6191 33.7458 16.62C33.4 18.5992 32.2773 20.279 31.003 21.9193C31.6502 21.6656 32.235 21.2919 32.7216 20.8208C35.3625 17.9312 37.9759 15.0178 40.5618 12.0803C40.6694 11.9438 40.7456 11.7881 40.7859 11.623C40.8262 11.4579 40.8296 11.2868 40.7959 11.1204C40.596 10.5142 40.5542 9.87241 40.674 9.24817C40.7938 8.62394 41.0718 8.03521 41.4849 7.53073C43.983 4.38385 47.1915 2.13997 51.1927 0.937625C52.5016 0.544265 53.8531 0.309245 55.1993 0L58.3837 0ZM46.7126 42.7772C46.8323 43.7223 46.8962 45.2784 47.2447 46.7776C49.2586 55.5626 56.1756 61.6065 66.8332 60.4215C75.4475 59.4616 82.7955 55.8174 88.7282 49.8972C91.5189 47.1165 93.2216 43.799 93.4424 39.9297C93.7617 34.4078 91.2875 29.9374 87.1266 26.2611C81.891 21.6348 75.4768 19.4478 68.3496 18.9208C66.3981 18.7414 64.4349 19.1323 62.7335 20.0391C59.9747 21.5036 57.0908 22.7604 54.2761 24.1483C53.7799 24.3914 53.3439 24.7285 52.9965 25.1379C48.8436 30.1526 46.9015 35.8724 46.7126 42.7772ZM15.7084 25.4372C8.79136 26.0236 3.49451 31.4984 3.44928 38.0965C3.41203 43.9697 3.44928 49.8453 3.44928 55.721C3.44811 56.0911 3.49547 56.4599 3.59029 56.8194C3.7332 57.3295 4.05918 57.779 4.51428 58.0933C4.96938 58.4076 5.52629 58.5679 6.09275 58.5477C6.65922 58.5275 7.20127 58.328 7.62914 57.9822C8.05701 57.6364 8.34504 57.165 8.44551 56.6462C8.51516 56.2189 8.5463 55.7869 8.53862 55.3548C8.53862 49.6977 8.53862 44.0389 8.53862 38.3785C8.53862 37.1415 9.19308 36.3993 10.2386 36.3993C11.2841 36.3993 11.9492 37.1663 11.9625 38.3785C11.9625 38.6259 11.9625 38.8733 11.9625 39.1207V86.8953C11.9625 87.2664 11.9492 87.6375 11.9625 88.0086C12.1275 90.5221 14.8411 92.3504 17.3871 91.6676C19.2307 91.1728 20.3747 89.6662 20.3774 87.6499C20.3774 79.7959 20.3774 71.9411 20.3774 64.0854C20.3597 63.655 20.4127 63.2245 20.5343 62.8089C20.6512 62.5054 20.8664 62.243 21.1502 62.058C21.4341 61.873 21.7727 61.7744 22.1193 61.7757C22.4659 61.7771 22.8036 61.8784 23.0858 62.0656C23.368 62.2528 23.5808 62.5168 23.6949 62.8212C23.8131 63.2375 23.865 63.6675 23.8492 64.0978C23.8492 71.767 23.8492 79.4363 23.8492 87.1056C23.8492 87.5385 23.8492 87.9715 23.8811 88.4019C24.0939 90.6285 26.5761 92.2564 28.9066 91.7022C31.0083 91.2074 32.2746 89.6117 32.2746 87.4396C32.2746 71.0521 32.2693 54.6638 32.2587 38.2746C32.2166 36.6915 32.8158 35.1516 33.9374 33.96C37.7338 29.7865 41.4769 25.5684 45.2308 21.3602C45.4542 21.1128 45.7416 20.7887 45.7416 20.5017C45.7416 18.9852 46.4173 17.7803 47.6038 16.6893L43.4962 13.8542C43.0732 14.3168 42.6981 14.7126 42.3496 15.1134C40.0058 17.721 37.6513 20.3211 35.3208 22.9361C33.8682 24.5639 32.0006 25.3358 29.7553 25.3828C29.3668 25.3828 28.9758 25.3828 28.6911 25.3828C27.5072 28.2947 27.1773 31.1174 27.8238 34.0961C28.3772 36.6616 28.582 39.2914 28.9119 41.899C29.0795 43.225 28.4783 44.2418 27.3157 44.9766C26.2728 45.6322 25.2246 46.2853 24.1658 46.9211C22.7983 47.7474 21.4256 47.7227 20.0688 46.8865C19.1829 46.3397 18.3262 45.7484 17.4084 45.2512C15.7376 44.3408 15.1417 43.0246 15.4131 41.2656C15.8148 38.7001 16.1819 36.1297 16.5411 33.5592C16.706 32.3668 17.0412 31.1471 16.9002 29.9794C16.706 28.4505 16.1287 26.9835 15.7084 25.4372ZM30.729 12.6172H30.5587C30.5587 11.9072 30.6066 11.1922 30.5587 10.4871C30.2474 6.52878 27.039 3.57982 22.6786 3.20378C18.7785 2.86979 14.8118 5.44766 14.0057 9.14128C13.6013 10.9869 13.6519 12.9512 13.7397 14.8512C13.9445 18.619 17.2328 21.7782 21.0983 22.09C25.5173 22.4586 29.3083 20.0737 30.3033 16.1921C30.6066 15.0318 30.5986 13.8072 30.729 12.6172ZM58.1895 7.6099H58.0884C58.0884 6.49662 58.0592 5.38334 58.0884 4.27253C58.1204 3.41159 57.7133 3.12461 56.8301 3.16914C51.6955 3.43138 47.5373 5.3957 44.3927 9.21549C43.8979 9.81419 43.9484 10.2051 44.6162 10.6603C46.5849 11.969 48.5137 13.3371 50.4957 14.6186C50.6691 14.7017 50.86 14.7484 51.055 14.7552C51.2499 14.762 51.4441 14.7289 51.6237 14.6582C53.619 13.7577 55.5983 12.8176 57.5431 11.8255C57.7139 11.7101 57.8564 11.5621 57.961 11.3915C58.0656 11.2209 58.1299 11.0315 58.1496 10.8359C58.2374 9.77461 58.1895 8.68854 58.1895 7.60742V7.6099ZM22.1891 31.7013C21.79 31.7013 21.391 31.7285 20.9972 31.7013C20.412 31.6518 20.1991 31.8646 20.1353 32.4187C19.7309 35.5087 19.268 38.6036 18.8663 41.6837C18.8619 41.8342 18.8927 41.9839 18.9566 42.1222C19.0204 42.2606 19.1158 42.3845 19.2361 42.4853C22.0268 44.4521 22.0348 44.4422 24.9213 42.6065C24.9772 42.5719 25.057 42.5496 25.0809 42.5001C25.2086 42.2527 25.4481 42.0053 25.4188 41.7579C25.0641 38.9723 24.6881 36.1891 24.2908 33.4083C24.0301 31.6988 24.0008 31.7013 22.1891 31.7013ZM64.6144 15.0169C64.6596 13.4237 63.3959 12.684 62.1189 13.2852C58.1355 15.1571 54.1661 17.0538 50.211 18.9753C49.2613 19.4329 48.9686 20.2667 49.3783 21.0658C49.788 21.8648 50.7484 22.2137 51.7328 21.7461C55.7234 19.8684 59.6873 17.9758 63.6301 16.0337C64.1169 15.7962 64.4175 15.2272 64.6144 15.0169ZM19.2627 25.415C19.5127 26.3699 19.6936 27.2135 19.973 28.0275C20.0494 28.1451 20.1544 28.2445 20.2796 28.3176C20.4049 28.3906 20.5468 28.4353 20.694 28.448C21.649 28.4975 22.6121 28.4926 23.5698 28.448C23.8146 28.448 24.2137 28.2773 24.2669 28.1116C24.5489 27.2457 24.7404 26.3576 24.9772 25.41L19.2627 25.415Z" fill="#50AC97"/>
<path d="M75.498 47.594C75.7641 48.1061 76.0567 48.5836 76.2962 49.0982C76.7431 50.0185 76.4372 50.9264 75.5725 51.3247C75.3739 51.425 75.1548 51.4854 74.9295 51.5021C74.7042 51.5187 74.4776 51.4911 74.2644 51.4212C74.0513 51.3512 73.8563 51.2404 73.6921 51.0959C73.5279 50.9515 73.3981 50.7766 73.3112 50.5825C72.8004 49.4148 72.0448 49.0982 70.7013 49.1378C68.2644 49.2045 66.4022 48.0591 65.1145 46.1443C64.4547 45.1547 64.617 44.2146 65.4843 43.7C66.3516 43.1854 67.2774 43.4155 67.9904 44.4249C68.7885 45.5579 69.9006 46.174 71.3505 45.9859C72.8004 45.7979 73.8167 44.9815 74.2051 43.6085C74.366 43.0841 74.3663 42.5285 74.2061 42.004C74.0458 41.4795 73.7313 41.007 73.2979 40.6397C72.4173 39.8283 71.3345 39.4943 70.1054 39.8307C69.2195 40.0781 68.3709 40.4715 67.4716 40.6298C66.0936 40.8719 64.6687 40.7097 63.3941 40.1657C62.1195 39.6217 61.0582 38.7229 60.357 37.5934C59.6558 36.464 59.3493 35.1599 59.4801 33.8614C59.6108 32.5629 60.1722 31.3343 61.0867 30.3456C61.5842 29.8038 61.6853 29.4005 61.2437 28.8315C61.0411 28.5491 60.8817 28.2418 60.7701 27.9186C60.6201 27.5544 60.6224 27.151 60.7765 26.7883C60.9307 26.4255 61.2255 26.1297 61.6028 25.9592C62.3477 25.6079 63.38 25.7267 63.6939 26.454C64.2978 27.8518 65.2209 28.1858 66.8092 28.1635C69.0439 28.1635 70.8264 29.2966 72.0449 31.0877C72.7499 32.1293 72.5982 33.0669 71.6724 33.5939C70.7865 34.0887 69.874 33.8116 69.161 32.827C68.2245 31.5306 66.7906 31.0012 65.2901 31.3945C64.6114 31.6015 64.0201 32.0022 63.6003 32.5396C63.1805 33.077 62.9535 33.7238 62.9516 34.388C62.9516 35.7685 63.8641 37.0624 65.346 37.3246C66.2772 37.4697 67.2335 37.3739 68.1101 37.0475C72.2178 35.4914 76.6074 37.4854 77.5678 41.5006C78.0839 43.6629 77.4641 45.5951 75.8439 47.2353C75.7242 47.3442 75.6204 47.4629 75.498 47.594Z" fill="#50AC97"/>
</svg>
